<svg xmlns="http://www.w3.org/2000/svg" viewBox="0 0 2853.2 786.37"><defs><style>.cls-1,.cls-2,.cls-3{fill:none;stroke-linecap:round;}.cls-1,.cls-2{stroke:#1799d6;stroke-linejoin:round;}.cls-1{stroke-width:5px;}.cls-2,.cls-3{stroke-width:3px;}.cls-3{stroke:#0a9dd9;stroke-miterlimit:10;stroke-dasharray:0 15;}</style></defs><title>Line Disturbance</title><g id="Layer_2" data-name="Layer 2"><g id="Layer_1-2" data-name="Layer 1"><polyline class="cls-1" points="2.5 737.68 1043.26 737.68 1117.27 741.15 1145.3 723.62 1173.33 746.03 1201.36 754.87 1229.39 734.35 1257.42 727.38 1285.46 740.49 1313.49 740.01 1341.53 752.9 1369.56 744.95 1397.59 725.63 1425.63 731.06 1453.66 721.9 1481.7 725.45 1509.73 724.25 1537.77 737.23 1561.66 744.58 1593.83 723.23 1621.87 750.78 1649.91 721.9 1677.94 755.11 1749.62 743.46 1777.66 737.68 2850.7 737.68"/><polyline class="cls-2" points="2.5 677.66 997.49 677.66 1075.29 692.78 1107.12 680.12 1138.94 677.55 1170.76 695.67 1202.58 679.96 1234.4 674.82 1266.22 681.53 1298.05 663.13 1329.87 689.91 1361.7 688.93 1393.52 673.9 1425.35 670.86 1457.17 670.21 1489 681.93 1520.82 688.41 1552.65 680.09 1584.47 662.44 1616.3 668.49 1648.12 683.13 1679.95 677.13 1711.78 670.29 1743.61 666.17 1880.75 677.66 2850.7 677.66"/><polyline class="cls-1" points="2.5 617.64 716.16 617.64 978.43 623.64 1074.36 606.4 1109.43 599.6 1144.5 627.45 1179.57 624.14 1214.65 620.81 1249.72 605.35 1284.8 601.18 1319.87 604.43 1354.95 615.44 1390.03 615.67 1425.1 601.15 1464.62 623.96 1499.7 624.75 1530.34 620.55 1565.41 612.98 1600.49 610.16 1635.57 624.05 1670.65 634.31 1705.73 629.42 1763.73 602.43 1829.81 604.92 1928.87 617.64 2850.7 617.64"/><polyline class="cls-2" points="2.5 557.62 760.19 557.62 935.08 559.32 974.07 572.17 1073.9 568.45 1112.89 564.46 1151.88 554.89 1190.87 550.87 1229.86 543.18 1268.85 549.29 1307.84 562.81 1346.83 558.27 1385.82 551.36 1424.81 550.54 1463.8 566.88 1502.8 564.93 1541.79 558.43 1580.78 563.49 1619.77 544.48 1658.77 561.65 1697.76 550.85 1759.68 556.87 1829.67 568.56 1932.65 557.08 1940.65 557.62 2850.7 557.62"/><polyline class="cls-1" points="2.5 497.6 928.93 497.6 970.24 507.88 1011.55 505.58 1052.85 485.29 1094.16 503.78 1135.47 512.6 1176.77 508.04 1218.08 483.07 1259.4 499.9 1300.71 509.23 1342.02 510.5 1383.33 503.02 1424.64 480.54 1465.95 481.57 1507.27 496.06 1548.58 479.77 1589.89 506.03 1631.2 511.88 1672.51 511.36 1713.83 507.6 1755.14 495.37 1796.46 495.46 1837.78 479.48 1879.1 497.6 2850.7 497.6"/><polyline class="cls-2" points="2.5 437.58 776.29 437.58 937.65 420.04 981.91 454.4 1026.15 444.52 1070.4 454.61 1114.65 422.56 1158.9 431.57 1203.15 424.28 1247.41 452.53 1291.66 451.68 1335.91 431.48 1380.17 442.08 1424.42 421.6 1468.67 453.55 1512.93 429.55 1557.19 432.67 1601.44 439.9 1645.69 427.27 1689.95 452.71 1734.2 424.74 1778.46 438.13 1822.72 443.88 1866.99 424.6 2043.29 437.58 2850.7 437.58"/><polyline class="cls-1" points="2.5 377.56 798.78 377.56 937.65 366.79 981.91 376 1026.15 364.9 1065.38 388.54 1109.63 385.1 1158.9 374.91 1203.15 395.05 1247.41 366.58 1291.66 363.24 1335.91 385.6 1380.17 390.82 1424.42 380.44 1468.67 370.16 1512.93 377.91 1557.19 373.61 1601.44 361.89 1645.69 389.16 1689.95 372.03 1734.2 376.84 1778.46 359.89 1822.72 392.92 1866.99 384.25 2066.29 377.56 2850.7 377.56"/><polyline class="cls-2" points="2.5 317.54 884.96 317.54 926.26 327.49 1011.55 323.1 1052.85 303.46 1094.16 332.71 1135.47 300.09 1176.77 308.09 1218.08 307.22 1259.4 301.55 1300.71 302.25 1342.02 311.62 1383.33 313.9 1424.64 331.64 1465.95 308.08 1507.27 320.52 1548.58 305.73 1589.89 329.22 1631.2 324.72 1672.51 327.79 1713.83 306.14 1755.14 333.05 1796.46 322.6 1837.78 316.81 1879.1 317.54 2850.7 317.54"/><path class="cls-1" d="M2.5,257.51c1.67-.28,652.75-.69,838.58,0l39,10.7,51.55-7.48,142.28,6.68,39-16.75,39,3.78,39-10.05,39,7.91,39,13.21,39-23.2,39,11.42,39,7.29,39-4.43,39,16.63,39-20.66,39,20.07,39-6.5,39-6.79,39-9.4,39-.69,72.39-8.16,39,7.12,39-6.24,39,15.54H2850.7"/><polyline class="cls-2" points="2.5 197.49 1004.21 197.49 1039.28 181.36 1074.36 202.03 1109.43 189.54 1139.41 207.9 1184.65 205.99 1224.81 182.32 1249.72 192.51 1284.8 197.16 1319.87 205.92 1354.95 211.72 1390.03 186.88 1425.1 181.78 1460.18 206.25 1495.26 188 1530.34 205.49 1565.41 197.88 1600.49 192.46 1635.57 194.98 1670.65 207 1705.73 209.86 1785.04 182.23 1849.6 196.54 2005.44 197.49 2850.7 197.49"/><polyline class="cls-1" points="2.5 137.47 1043.47 137.47 1075.29 127.78 1107.12 155.59 1138.94 150.61 1170.76 142.53 1202.58 124.41 1234.4 135.28 1266.22 130.55 1298.05 143.99 1329.87 135.44 1361.7 121.5 1393.52 148.59 1425.35 124.07 1457.17 153.42 1489 138.29 1520.82 129.04 1552.65 132.1 1584.47 153.46 1616.3 147.09 1714.02 122.59 1745.85 122.23 1860.73 134.75 1880.2 135.84 1912.03 137.47 2850.7 137.47"/><polyline class="cls-2" points="2.5 77.45 992.76 77.45 1020.79 72.42 1048.83 75.05 1139.88 86.91 1164.65 70.05 1229.39 85.06 1257.42 92.23 1285.46 79.85 1313.49 87.7 1341.53 64.05 1369.56 60.47 1397.59 86.8 1425.63 62.21 1453.66 60.91 1481.7 82.12 1509.73 63.09 1537.77 79.69 1565.8 79.29 1622.94 86.54 1650.98 81.54 1715.81 66.95 1743.84 66.81 1771.88 89.36 1799.93 77.45 2850.7 77.45"/><polyline class="cls-3" points="2.5 767.69 1107.49 767.69 1134.01 784.86 1160.54 784.36 1187.05 753.68 1213.57 750.88 1240.09 769.06 1266.61 776.3 1293.13 766.81 1319.65 781.61 1346.17 771.44 1372.7 770.78 1399.22 770.6 1425.74 750.38 1452.26 754.92 1478.79 752.21 1505.31 781.57 1531.83 751.79 1558.35 771.4 1584.87 775.44 1611.4 769.92 1637.92 763.17 1664.45 779.79 1734.61 779.94 1761.14 767.69 2850.7 767.69"/><polyline class="cls-3" points="2.5 707.67 802.24 707.67 1095.48 694.02 1125.48 693.52 1155.48 716.07 1185.47 695.86 1215.47 691.1 1245.47 694.53 1275.47 697.27 1305.48 720.14 1335.48 700.95 1365.48 697.14 1395.48 697.03 1425.48 698.88 1455.48 690.25 1485.49 691.54 1515.49 696.87 1545.49 697.35 1575.49 696.53 1605.49 705.17 1635.5 701.35 1665.51 703.14 1739.15 694.09 1831.79 695.67 1996.54 707.67 2850.7 707.67"/><polyline class="cls-3" points="2.5 647.65 976.23 647.65 1009.81 661.12 1089.38 665.48 1122.96 647.44 1156.54 651.32 1190.12 629.96 1223.7 635.92 1257.29 665.45 1290.88 637.35 1324.46 631 1358.05 634.03 1391.63 631.53 1425.21 633.89 1458.8 660.81 1492.39 655.52 1525.97 649.5 1559.56 653.25 1593.14 653.51 1626.73 643.22 1660.32 641.92 1693.91 642.22 1750.41 643.73 1761.09 653.47 1986.89 647.65 2850.7 647.65"/><polyline class="cls-3" points="2.5 587.63 927.6 587.63 963.98 590.03 1061.21 577.44 1097.59 583.06 1133.96 604.99 1170.34 596.02 1206.72 588.25 1243.1 584.26 1279.48 572.59 1315.86 590.44 1352.24 577.86 1388.63 585.8 1425.01 584.95 1461.39 585.1 1497.77 574.77 1534.16 585.15 1570.54 603.39 1606.91 582.75 1643.3 584.05 1679.68 573.47 1738.99 601.59 1775.38 588.47 1906.74 573.06 1983.18 587.63 2850.7 587.63"/><polyline class="cls-3" points="2.5 527.61 770.08 527.61 983.08 528.6 1023.23 511.66 1063.38 520.76 1103.53 526.37 1143.67 511.24 1183.82 514.16 1223.97 522.28 1264.12 521.96 1304.27 535.8 1344.42 531.93 1384.57 540.72 1424.72 516.88 1464.88 516.09 1505.03 526.25 1545.19 514.72 1585.34 522.62 1625.48 540.76 1665.64 535.19 1705.79 521.3 1745.95 528.54 1786.11 520.1 1826.27 536.83 2191.71 527.61 2850.7 527.61"/><polyline class="cls-3" points="2.5 467.59 911.39 467.59 954.15 473.08 996.91 483.7 1039.67 459.9 1082.43 480.89 1125.19 456.26 1167.95 452.93 1210.71 473.2 1253.48 456.27 1313.06 479.48 1346.45 467.41 1381.77 470.32 1424.53 482.61 1467.3 460.56 1510.06 476.91 1552.83 451.8 1595.59 462.24 1638.35 480.56 1681.12 456.97 1723.89 470.53 1766.66 475.64 1809.42 469.3 1852.2 454.17 2110.82 467.59 2850.7 467.59"/><polyline class="cls-3" points="2.5 407.57 753.61 407.57 916.86 404.31 962.99 422.73 1009.11 411.59 1055.24 421.36 1101.37 413.98 1147.49 413.37 1193.62 398.99 1239.76 424.51 1285.89 404.68 1332.02 398.29 1378.15 406.53 1424.28 391.79 1470.41 417.2 1516.55 420.37 1562.68 422.72 1608.81 418.68 1654.94 418.27 1701.08 404.32 1747.21 391.26 1793.35 392.86 1839.49 418.32 1885.63 397.31 1931.77 407.57 2850.7 407.57"/><polyline class="cls-3" points="2.5 347.55 758.71 347.55 910.18 345.54 996.91 338.24 1039.67 358.63 1082.43 347.29 1125.19 331.01 1167.95 358.44 1210.71 352.52 1253.48 343.63 1296.24 346.63 1347.26 355.62 1390.02 353.65 1424.53 347.74 1467.3 363.39 1510.06 349.91 1552.83 350.26 1595.59 337.64 1638.35 349.6 1681.12 335.26 1723.89 341.76 1766.66 334.7 1809.42 359.38 1852.2 364.3 1894.97 347.55 2850.7 347.55"/><polyline class="cls-3" points="2.5 287.52 783.1 287.52 939.11 291.73 1023.23 300.2 1063.38 292.9 1103.53 300.39 1143.67 270 1183.82 287.73 1223.97 285.54 1264.12 272.53 1304.27 303.06 1344.42 297.08 1384.57 281.91 1424.72 282.58 1464.88 297.37 1505.03 285.61 1545.19 269.61 1585.34 290.55 1625.48 287.08 1665.64 294.69 1705.79 286.78 1779.34 273.21 1819.5 271.11 1841.44 292.64 1899.82 287.52 2850.7 287.52"/><polyline class="cls-3" points="2.5 227.5 872.59 227.5 908.97 239.75 1046.64 228.7 1097.59 243.89 1133.96 232.4 1170.34 237.11 1206.72 232.33 1243.1 223.08 1279.48 224.25 1315.86 241.06 1352.24 211.73 1388.63 235.6 1425.01 245.67 1461.39 233.15 1497.77 223.21 1534.16 212.61 1570.54 221.38 1606.91 212.22 1643.3 219.53 1679.68 221.63 1716.07 241.04 1785.85 214.43 1822.24 231.46 1858.63 227.5 2850.7 227.5"/><polyline class="cls-3" points="2.5 167.48 913.9 167.48 1045.9 168.38 1089.38 176.84 1122.96 181.59 1156.54 177.51 1190.12 154.53 1223.7 156.49 1257.29 172.71 1290.88 159.71 1324.46 165.7 1358.05 171.88 1391.63 165.94 1425.21 156.17 1458.8 160.33 1492.39 169.58 1525.97 178.11 1559.56 166.44 1593.14 170.94 1626.73 165.21 1660.32 168.79 1758.32 155.59 1903.7 166.27 2016.57 167.48 2850.7 167.48"/><polyline class="cls-3" points="2.5 107.46 886.07 107.46 1095.48 91.48 1125.48 121.42 1155.48 116.44 1185.47 118.22 1215.47 98.16 1245.47 107.72 1275.47 115.08 1305.48 104.37 1335.48 105.92 1365.48 104.56 1395.48 104.36 1425.48 125.36 1455.48 122.85 1485.49 106.14 1515.49 118.46 1545.49 93.39 1604.6 94.1 1634.6 115.81 1664.61 122.12 1731.4 96.72 1801.41 99.48 1889.67 107.46 2850.7 107.46"/><polyline class="cls-3" points="2.5 47.44 1011.02 47.44 1037.54 59.79 1123.82 33.98 1150.34 51.08 1176.86 50.85 1240.09 61.8 1266.61 56.22 1293.13 64.46 1319.65 59.87 1346.17 51.25 1372.7 60 1399.22 46.24 1425.74 46.3 1452.26 39.32 1478.79 35.72 1505.31 42.54 1531.83 54.97 1558.35 48.81 1613.98 56.67 1640.51 36.7 1667.03 47.69 1730.35 63.75 1756.88 61.95 1783.4 47.44 2850.7 47.44"/><polyline class="cls-1" points="2.5 17.43 1011.02 17.43 1037.54 21.33 1123.82 25.85 1150.34 24.35 1176.86 6.29 1240.09 21.58 1266.61 3.21 1293.13 32.43 1319.65 18.36 1346.17 6.56 1372.7 6.98 1399.22 8.38 1425.74 3.88 1452.26 27.85 1478.79 17.01 1505.31 2.5 1531.83 24.67 1558.35 32.6 1584.87 4.05 1640.51 30.24 1637.92 6.18 1730.35 33.07 1756.88 29.32 2003.96 17.43 2850.7 17.43"/></g></g></svg>